<svg width="20" height="20" viewBox="0 0 20 20" fill="none" xmlns="http://www.w3.org/2000/svg">
<path d="M18.6053 7.90478L15.6858 10.8243L7.90415 18.6056C7.72095 18.7892 7.42329 18.7888 7.2397 18.6056L6.12759 17.4931C7.1272 16.4935 7.12759 14.8724 6.12759 13.8724C6.08299 13.8278 6.03674 13.7849 5.98892 13.7438C4.98306 12.8747 3.46157 12.9177 2.50688 13.8724L1.39438 12.7603C1.21118 12.5767 1.21079 12.279 1.39438 12.0958L4.31431 9.17627L12.0956 1.39463C12.2788 1.21104 12.5764 1.21143 12.76 1.39463L13.8721 2.50713C12.8725 3.50674 12.8725 5.12783 13.8721 6.12783C14.8721 7.12783 16.4932 7.12744 17.4928 6.12783L18.6053 7.23994C18.7885 7.42353 18.7889 7.72119 18.6053 7.90478Z" fill="#FFC035"/>
<path d="M9.76497 14.7829C9.74444 14.7829 9.72411 14.7789 9.70515 14.771C9.68618 14.7632 9.66896 14.7517 9.65446 14.7371L4.20407 9.28673C4.17474 9.25742 4.15824 9.21766 4.1582 9.17619C4.15817 9.13472 4.17459 9.09493 4.20387 9.06556C4.21835 9.05104 4.23555 9.03951 4.25448 9.03163C4.27342 9.02376 4.29372 9.0197 4.31422 9.01968C4.33473 9.01966 4.35504 9.02369 4.37399 9.03153C4.39294 9.03937 4.41015 9.05087 4.42465 9.06537L9.87544 14.5162C9.89728 14.538 9.91216 14.5659 9.91818 14.5962C9.92421 14.6265 9.92112 14.6579 9.90929 14.6864C9.89747 14.715 9.87745 14.7394 9.85176 14.7566C9.82607 14.7737 9.79587 14.7829 9.76497 14.7829ZM15.6861 10.9806C15.6655 10.9806 15.6452 10.9766 15.6263 10.9687C15.6073 10.9608 15.5901 10.9493 15.5756 10.9348L10.1248 5.48404C10.11 5.46959 10.0983 5.45236 10.0902 5.43333C10.0821 5.41431 10.0779 5.39387 10.0778 5.3732C10.0777 5.35254 10.0817 5.33205 10.0895 5.31294C10.0974 5.29382 10.1089 5.27645 10.1235 5.26184C10.1382 5.24722 10.1555 5.23565 10.1746 5.2278C10.1938 5.21994 10.2142 5.21595 10.2349 5.21607C10.2556 5.21618 10.276 5.22039 10.295 5.22846C10.3141 5.23653 10.3313 5.24829 10.3457 5.26306L15.7965 10.7138C15.811 10.7283 15.8226 10.7456 15.8304 10.7645C15.8383 10.7835 15.8423 10.8038 15.8423 10.8243C15.8423 10.8448 15.8383 10.8652 15.8304 10.8841C15.8226 10.9031 15.811 10.9203 15.7965 10.9348C15.782 10.9493 15.7648 10.9608 15.7459 10.9687C15.7269 10.9765 15.7066 10.9806 15.6861 10.9806Z" fill="#C98B0E"/>
<path opacity="0.2" d="M18.6057 7.90464L15.6861 10.8242L7.90449 18.6054C7.72129 18.789 7.42363 18.7886 7.24004 18.6054L6.12793 17.4929C7.12754 16.4933 7.12793 14.8722 6.12793 13.8722C6.08333 13.8277 6.03708 13.7848 5.98926 13.7437L13.8725 6.12769C14.8725 7.12769 16.4936 7.12729 17.4932 6.12769L18.6057 7.23979C18.7889 7.42339 18.7893 7.72105 18.6057 7.90464Z" fill="url(#paint0_linear_1428_411)"/>
<defs>
<linearGradient id="paint0_linear_1428_411" x1="9.8666" y1="9.86636" x2="13.2553" y2="13.255" gradientUnits="userSpaceOnUse">
<stop/>
<stop offset="1" stop-color="white" stop-opacity="0"/>
</linearGradient>
</defs>
</svg>
